<?xml version="1.0" encoding="UTF-8" standalone="no"?>
<!DOCTYPE svg PUBLIC "-//W3C//DTD SVG 1.1//EN"
 "http://www.w3.org/Graphics/SVG/1.1/DTD/svg11.dtd">
<!-- Generated by graphviz version 2.43.0 (0)
 -->
<!-- Title: GRAMPS_graph Pages: 1 -->
<svg width="462pt" height="1004pt"
 viewBox="0.00 0.00 462.00 1004.00" xmlns="http://www.w3.org/2000/svg" xmlns:xlink="http://www.w3.org/1999/xlink">
<g id="graph0" class="graph" transform="scale(1 1) rotate(0) translate(4 1000)">
<title>GRAMPS_graph</title>
<polygon fill="#f6f6f6" stroke="transparent" points="-4,4 -4,-1000 458,-1000 458,4 -4,4"/>
<g id="clust1" class="cluster">
<title>cluster_100faac1d0e02a61367ea058aec2</title>
</g>
<g id="clust2" class="cluster">
<title>cluster_100fa9e5119e300647f9c775f950</title>
</g>
<g id="clust3" class="cluster">
<title>cluster_100fa9dda11a6793aa5503caf600</title>
</g>
<g id="clust4" class="cluster">
<title>cluster_100fa966af8a7ef11ed12484f5df</title>
</g>
<!-- _100faac1d0e02a61367ea058aec2&#45;&gt;_100faac3ea773cb070c5f94c5a56 -->
<g id="edge1" class="edge">
<title>_100faac1d0e02a61367ea058aec2&#45;&gt;_100faac3ea773cb070c5f94c5a56</title>
<path fill="none" stroke="#292929" d="M278,-827.93C278,-814.53 278,-801.88 278,-792.31"/>
</g>
<!-- _100faac3ea773cb070c5f94c5a56&#45;&gt;_100fa9e5119e300647f9c775f950 -->
<g id="edge6" class="edge">
<title>_100faac3ea773cb070c5f94c5a56&#45;&gt;_100fa9e5119e300647f9c775f950</title>
<path fill="none" stroke="#292929" d="M267.56,-757.34C261.09,-747.64 252.25,-734.37 242.84,-720.26"/>
</g>
<!-- _100faac3ea773cb070c5f94c5a56&#45;&gt;_100fa9dda11a6793aa5503caf600 -->
<g id="edge7" class="edge">
<title>_100faac3ea773cb070c5f94c5a56&#45;&gt;_100fa9dda11a6793aa5503caf600</title>
<path fill="none" stroke="#292929" d="M288.44,-757.34C295.77,-746.34 306.16,-730.76 316.96,-714.56"/>
</g>
<!-- _100fa9e5119e300647f9c775f950&#45;&gt;_100fa9eb4ed1ab3d9cd5f364174 -->
<g id="edge2" class="edge">
<title>_100fa9e5119e300647f9c775f950&#45;&gt;_100fa9eb4ed1ab3d9cd5f364174</title>
<path fill="none" stroke="#292929" d="M179.22,-559.93C177.39,-546.53 175.67,-533.88 174.36,-524.31"/>
</g>
<!-- _100fa9eb4ed1ab3d9cd5f364174&#45;&gt;_100fa9ccb5f933d18366b72cb2f9 -->
<g id="edge9" class="edge">
<title>_100fa9eb4ed1ab3d9cd5f364174&#45;&gt;_100fa9ccb5f933d18366b72cb2f9</title>
<path fill="none" stroke="#292929" d="M154.64,-492.13C141.58,-482 123.68,-467.13 110,-452 107.35,-449.07 104.72,-446.01 102.12,-442.88"/>
</g>
<!-- _100fa9eb4ed1ab3d9cd5f364174&#45;&gt;_100fa9cfea0f26cc5353d9d10fb3 -->
<g id="edge10" class="edge">
<title>_100fa9eb4ed1ab3d9cd5f364174&#45;&gt;_100fa9cfea0f26cc5353d9d10fb3</title>
<path fill="none" stroke="#292929" d="M172,-487.8C172,-478.26 172,-465.61 172,-452.09"/>
</g>
<!-- _100fa9dda11a6793aa5503caf600&#45;&gt;_100fa9e738c0414791414c9cbfc8 -->
<g id="edge3" class="edge">
<title>_100fa9dda11a6793aa5503caf600&#45;&gt;_100fa9e738c0414791414c9cbfc8</title>
<path fill="none" stroke="#292929" d="M372.59,-559.93C373.71,-546.53 374.76,-533.88 375.56,-524.31"/>
</g>
<!-- _100fa9e738c0414791414c9cbfc8&#45;&gt;_100fa966af8a7ef11ed12484f5df -->
<g id="edge8" class="edge">
<title>_100fa9e738c0414791414c9cbfc8&#45;&gt;_100fa966af8a7ef11ed12484f5df</title>
<path fill="none" stroke="#292929" d="M379.58,-488.08C381.03,-478.51 382.97,-465.74 385.05,-452.08"/>
</g>
<!-- _100fa966af8a7ef11ed12484f5df&#45;&gt;_100fa9b2b6c53b60d177613a77df -->
<g id="edge4" class="edge">
<title>_100fa966af8a7ef11ed12484f5df&#45;&gt;_100fa9b2b6c53b60d177613a77df</title>
<path fill="none" stroke="#292929" d="M364.11,-279.96C358.62,-266.2 353.5,-253.35 349.68,-243.75"/>
</g>
<!-- _100fa9b2b6c53b60d177613a77df&#45;&gt;_100fa99c703f10cc6c599eccd7a2 -->
<g id="edge11" class="edge">
<title>_100fa9b2b6c53b60d177613a77df&#45;&gt;_100fa99c703f10cc6c599eccd7a2</title>
<path fill="none" stroke="#292929" d="M343,-207.8C343,-198.26 343,-185.61 343,-172.09"/>
</g>
<!-- _100fa992a82f70d9570354ff007d&#45;&gt;_100fa9b2b6c53b60d177613a77df -->
<g id="edge5" class="edge">
<title>_100fa992a82f70d9570354ff007d&#45;&gt;_100fa9b2b6c53b60d177613a77df</title>
<path fill="none" stroke="#292929" d="M322.28,-279.96C327.66,-266.2 332.69,-253.35 336.45,-243.75"/>
</g>
<!-- _100faac1d0e02a61367ea058aec2 -->
<g id="node1" class="node">
<title>_100faac1d0e02a61367ea058aec2</title>
<polygon fill="#b8cee6" stroke="#1f4986" points="325.5,-988 230.5,-988 230.5,-828 325.5,-828 325.5,-988"/>
<image xlink:href="/home/w3b/.gramps/gramps51/plugins/GraphView/avatars/dark/person_male.png" width="75px" height="124px" preserveAspectRatio="xMinYMin meet" x="241" y="-980"/>
<text text-anchor="start" x="251" y="-846.2" font-family="Times,serif" font-weight="bold" font-size="11.00" fill="#000000">IDK Pasi</text>
</g>
<!-- _100faac3ea773cb070c5f94c5a56 -->
<g id="node2" class="node">
<title>_100faac3ea773cb070c5f94c5a56</title>
<ellipse fill="#eeeeee" stroke="#cccccc" cx="278" cy="-774" rx="27" ry="18"/>
</g>
<!-- _100fa9e5119e300647f9c775f950 -->
<g id="node3" class="node">
<title>_100fa9e5119e300647f9c775f950</title>
<polygon fill="#b8cee6" stroke="#1f4986" points="254,-720 126,-720 126,-560 254,-560 254,-720"/>
<image xlink:href="/home/w3b/.gramps/gramps51/plugins/GraphView/avatars/dark/person_male.png" width="75px" height="124px" preserveAspectRatio="xMinYMin meet" x="152.5" y="-712"/>
<text text-anchor="start" x="136" y="-578.2" font-family="Times,serif" font-weight="bold" font-size="11.00" fill="#000000">Ramkrishna Pasi</text>
</g>
<!-- _100fa9eb4ed1ab3d9cd5f364174 -->
<g id="node4" class="node">
<title>_100fa9eb4ed1ab3d9cd5f364174</title>
<ellipse fill="#eeeeee" stroke="#cccccc" cx="172" cy="-506" rx="27" ry="18"/>
</g>
<!-- _100fa9dda11a6793aa5503caf600 -->
<g id="node5" class="node">
<title>_100fa9dda11a6793aa5503caf600</title>
<polygon fill="#b8cee6" stroke="#1f4986" points="415,-720 317,-720 317,-560 415,-560 415,-720"/>
<image xlink:href="/home/w3b/.gramps/gramps51/plugins/GraphView/avatars/dark/person_male.png" width="75px" height="124px" preserveAspectRatio="xMinYMin meet" x="328.5" y="-712"/>
<text text-anchor="start" x="327" y="-578.2" font-family="Times,serif" font-weight="bold" font-size="11.00" fill="#000000">Mangal Pasi</text>
</g>
<!-- _100fa9e738c0414791414c9cbfc8 -->
<g id="node6" class="node">
<title>_100fa9e738c0414791414c9cbfc8</title>
<ellipse fill="#eeeeee" stroke="#cccccc" cx="377" cy="-506" rx="27" ry="18"/>
</g>
<!-- _100fa966af8a7ef11ed12484f5df -->
<g id="node7" class="node">
<title>_100fa966af8a7ef11ed12484f5df</title>
<polygon fill="#b8cee6" stroke="#1f4986" points="445.5,-452 350.5,-452 350.5,-280 445.5,-280 445.5,-452"/>
<image xlink:href="/home/w3b/.gramps/gramps51/plugins/GraphView/avatars/dark/person_male.png" width="75px" height="124px" preserveAspectRatio="xMinYMin meet" x="361" y="-444"/>
<text text-anchor="start" x="365" y="-310.2" font-family="Times,serif" font-weight="bold" font-size="11.00" fill="#000000">Rajen Pasi</text>
<text text-anchor="start" x="361" y="-295.12" font-family="Times,serif" font-size="11.10" fill="#000000">(1962 &#45; )</text>
</g>
<!-- _100fa9b2b6c53b60d177613a77df -->
<g id="node8" class="node">
<title>_100fa9b2b6c53b60d177613a77df</title>
<ellipse fill="#eeeeee" stroke="#cccccc" cx="343" cy="-226" rx="27" ry="18"/>
</g>
<!-- _100fa992a82f70d9570354ff007d -->
<g id="node9" class="node">
<title>_100fa992a82f70d9570354ff007d</title>
<polygon fill="#feccf0" stroke="#861f69" points="336.5,-452 241.5,-452 241.5,-280 336.5,-280 336.5,-452"/>
<image xlink:href="/home/w3b/.gramps/gramps51/plugins/GraphView/avatars/dark/person_female.png" width="75px" height="124px" preserveAspectRatio="xMinYMin meet" x="252" y="-444"/>
<text text-anchor="start" x="252.5" y="-310.2" font-family="Times,serif" font-weight="bold" font-size="11.00" fill="#000000">Sabitri Pasi</text>
<text text-anchor="start" x="252" y="-295.12" font-family="Times,serif" font-size="11.10" fill="#000000">(1968 &#45; )</text>
</g>
<!-- _100fa9ccb5f933d18366b72cb2f9 -->
<g id="node10" class="node">
<title>_100fa9ccb5f933d18366b72cb2f9</title>
<polygon fill="#feccf0" stroke="#861f69" points="102,-452 0,-452 0,-280 102,-280 102,-452"/>
<image xlink:href="/home/w3b/.gramps/gramps51/plugins/GraphView/avatars/dark/person_female.png" width="75px" height="124px" preserveAspectRatio="xMinYMin meet" x="13.5" y="-444"/>
<text text-anchor="start" x="10" y="-310.2" font-family="Times,serif" font-weight="bold" font-size="11.00" fill="#000000">Nirmala Pasi</text>
<text text-anchor="start" x="10" y="-295.12" font-family="Times,serif" font-size="11.10" fill="#000000">(1971 &#45; )</text>
</g>
<!-- _100fa9cfea0f26cc5353d9d10fb3 -->
<g id="node11" class="node">
<title>_100fa9cfea0f26cc5353d9d10fb3</title>
<polygon fill="#b8cee6" stroke="#1f4986" points="227.5,-452 116.5,-452 116.5,-280 227.5,-280 227.5,-452"/>
<image xlink:href="/home/w3b/.gramps/gramps51/plugins/GraphView/avatars/dark/person_male.png" width="75px" height="124px" preserveAspectRatio="xMinYMin meet" x="135" y="-444"/>
<text text-anchor="start" x="127" y="-310.2" font-family="Times,serif" font-weight="bold" font-size="11.00" fill="#000000">Babubhai Pasi</text>
<text text-anchor="start" x="127" y="-295.12" font-family="Times,serif" font-size="11.10" fill="#000000">(1980 &#45; )</text>
</g>
<!-- _100fa99c703f10cc6c599eccd7a2 -->
<g id="node12" class="node">
<title>_100fa99c703f10cc6c599eccd7a2</title>
<polygon fill="#feccf0" stroke="#861f69" points="390.5,-172 295.5,-172 295.5,0 390.5,0 390.5,-172"/>
<image xlink:href="/home/w3b/.gramps/gramps51/plugins/GraphView/avatars/dark/person_female.png" width="75px" height="124px" preserveAspectRatio="xMinYMin meet" x="306" y="-164"/>
<text text-anchor="start" x="310.5" y="-30.2" font-family="Times,serif" font-weight="bold" font-size="11.00" fill="#000000">Soma Pasi</text>
<text text-anchor="start" x="306" y="-15.12" font-family="Times,serif" font-size="11.10" fill="#000000">(1985 &#45; )</text>
</g>
</g>
</svg>
